<?xml version="1.0" encoding="utf-8"?>
<!-- Generator: Adobe Illustrator 25.4.1, SVG Export Plug-In . SVG Version: 6.00 Build 0)  -->
<svg version="1.1" id="Capa_1" xmlns="http://www.w3.org/2000/svg" xmlns:xlink="http://www.w3.org/1999/xlink" x="0px" y="0px"
	 viewBox="0 0 442 385" style="enable-background:new 0 0 442 385;" xml:space="preserve">
<style type="text/css">
	.st0{fill:url(#SVGID_1_);}
	.st1{fill:#006738;}
</style>
<g id="_x23_f4f4f4ff">
</g>
<g id="_x23_f0f0eeff">
</g>
<g id="_x23_f6f8f7ff">
</g>
<g id="_x23_f9fbfaff">
</g>
<g id="_x23_fdfefdff">
</g>
<g id="_x23_fdfefeff">
</g>
<g id="_x23_fbfbfbff">
</g>
<g id="_x23_f2f2f2ff">
</g>
<g id="_x23_f1f1f1ff">
</g>
<g id="_x23_f7f7f7ff">
</g>
<linearGradient id="SVGID_1_" gradientUnits="userSpaceOnUse" x1="-3.6188" y1="968.1418" x2="151.4241" y2="968.1418" gradientTransform="matrix(6.123234e-17 1 -1 6.123234e-17 1177.0032 20.7878)">
	<stop  offset="0" style="stop-color:#000000"/>
	<stop  offset="0.328" style="stop-color:#000000"/>
	<stop  offset="0.524" style="stop-color:#000000"/>
	<stop  offset="0.7298" style="stop-color:#000000"/>
	<stop  offset="1" style="stop-color:#000000"/>
</linearGradient>
<path class="st0" d="M154.6,172.2h-43.7V62c0-2.9,0.3-5.7,0.8-8.4c0.1-0.4,0.2-0.8,0.2-1.2c1.3-6.1,3.9-11.8,7.5-16.7
	c8.2-11.2,21.3-18.5,36.2-18.5h151.1c-12.6,22.2-36.4,36.4-62.5,36.4h-71.5c-14.1,0-25.6,11.5-25.6,25.6v75.2
	C147.3,161.3,150.1,167.6,154.6,172.2z"/>
<path class="st1" d="M262.3,216.3h-84.4c11.6-7.8,20-20.1,22.8-34.6c0.1-0.6,0.2-1.2,0.3-1.7C226.6,180.3,249.9,194.4,262.3,216.3z"
	/>
<path class="st1" d="M320.8,145.9V297c-22.1-12.6-36.4-36.4-36.4-62.5V163c0-14.1-11.5-25.6-25.6-25.6h-75.2c-7,0-13.3,2.8-17.9,7.3
	v-43.7H276c2.9,0,5.7,0.3,8.4,0.8C305.1,105.8,320.8,124.1,320.8,145.9z"/>
<path class="st1" d="M150.6,208.5c-0.4,25.6-14.5,48.9-36.4,61.3v-84.4c3.5,5.1,7.8,9.7,12.9,13.4c6.1,4.4,12.9,7.5,20.2,9.1
	l0.2,0.1c0.4,0.1,0.8,0.2,1.2,0.2C149.4,208.3,150,208.4,150.6,208.5z"/>
<g>
	<path class="st1" d="M45.2,364.1H29l-3,7.4H15l16.9-38.2h10.6l16.9,38.2H48.2L45.2,364.1z M42,356.1l-4.9-12.2l-4.9,12.2H42z"/>
	<path class="st1" d="M79.2,361.4h-5.9v10.2H62.5v-38.2H80c10.4,0,17,5.4,17,14.1c0,5.6-2.7,9.8-7.5,12.1l8.2,12H86.1L79.2,361.4z
		 M79.3,341.8h-6V353h6c4.5,0,6.7-2.1,6.7-5.6C86,343.9,83.8,341.8,79.3,341.8z"/>
	<path class="st1" d="M110.5,341.9H98.7v-8.6H133v8.6h-11.7v29.6h-10.8V341.9z"/>
	<path d="M148.1,325.6h9.2l-18,51.4h-9.2L148.1,325.6z"/>
	<path d="M155.5,352.4c0-11.6,8.9-19.9,21-19.9c7,0,12.7,2.6,16.4,7.2l-6.9,6.2c-2.4-2.9-5.3-4.5-9-4.5c-6.3,0-10.6,4.4-10.6,10.9
		c0,6.5,4.4,10.9,10.6,10.9c3.7,0,6.6-1.6,9-4.5l6.9,6.2c-3.7,4.6-9.4,7.2-16.4,7.2C164.4,372.3,155.5,364.1,155.5,352.4z"/>
	<path d="M234.1,333.3v38.2h-10.8v-14.9h-14.7v14.9h-10.8v-38.2h10.8v14.4h14.7v-14.4H234.1z"/>
	<path d="M241.7,333.3h10.8v38.2h-10.8V333.3z"/>
	<path d="M258.3,352.4c0-11.6,8.9-19.9,21-19.9c7,0,12.7,2.6,16.4,7.2l-6.9,6.2c-2.4-2.9-5.3-4.5-9-4.5c-6.3,0-10.6,4.4-10.6,10.9
		c0,6.5,4.4,10.9,10.6,10.9c3.7,0,6.6-1.6,9-4.5l6.9,6.2c-3.7,4.6-9.4,7.2-16.4,7.2C267.2,372.3,258.3,364.1,258.3,352.4z"/>
	<path d="M325.5,364.1h-16.2l-3,7.4h-11l16.9-38.2h10.6l16.9,38.2h-11.2L325.5,364.1z M322.3,356.1l-4.9-12.2l-4.9,12.2H322.3z"/>
	<path d="M367.8,351.6h9.6v15.8c-4.4,3.2-10.5,4.9-16,4.9c-12.2,0-21.1-8.2-21.1-19.9s8.9-19.9,21.3-19.9c7.2,0,12.9,2.5,16.7,7
		l-6.9,6.2c-2.6-2.9-5.6-4.3-9.3-4.3c-6.5,0-10.9,4.3-10.9,10.9c0,6.4,4.4,10.9,10.8,10.9c2,0,3.9-0.4,5.8-1.3V351.6z"/>
	<path d="M382.3,352.4c0-11.5,9-19.9,21.2-19.9c12.2,0,21.2,8.4,21.2,19.9c0,11.5-9,19.9-21.2,19.9
		C391.3,372.3,382.3,363.9,382.3,352.4z M413.9,352.4c0-6.6-4.5-10.9-10.3-10.9c-5.8,0-10.3,4.3-10.3,10.9s4.5,10.9,10.3,10.9
		C409.3,363.4,413.9,359,413.9,352.4z"/>
</g>
</svg>
